<?xml version="1.0" encoding="utf-8"?>
<!-- Generator: Adobe Illustrator 17.0.0, SVG Export Plug-In . SVG Version: 6.00 Build 0)  -->
<!DOCTYPE svg PUBLIC "-//W3C//DTD SVG 1.1//EN" "http://www.w3.org/Graphics/SVG/1.1/DTD/svg11.dtd">
<svg version="1.1" id="Layer_1" xmlns="http://www.w3.org/2000/svg" xmlns:xlink="http://www.w3.org/1999/xlink" x="0px" y="0px"
	 width="19.767px" height="16.069px" viewBox="-2.281 -1.857 19.767 16.069" enable-background="new -2.281 -1.857 19.767 16.069"
	 xml:space="preserve">
<g>
	<circle fill="none" cx="7.602" cy="6.176" r="15.6"/>
	<path fill="#FFFFFF" d="M17.486,0.045c-0.727,0.322-1.508,0.541-2.33,0.638c0.837-0.502,1.481-1.296,1.784-2.244
		c-0.783,0.465-1.652,0.802-2.575,0.984c-0.74-0.788-1.794-1.28-2.961-1.28c-2.24,0-4.056,1.816-4.056,4.056
		c0,0.319,0.036,0.627,0.104,0.926c-3.37-0.17-6.358-1.786-8.359-4.241c-0.35,0.599-0.549,1.296-0.549,2.041
		c0,1.407,0.716,2.649,1.804,3.376C-0.315,4.281-0.94,4.099-1.488,3.794c0,0.017,0,0.034,0,0.052c0,1.966,1.398,3.605,3.254,3.977
		C1.426,7.915,1.067,7.965,0.698,7.965c-0.263,0-0.515-0.025-0.763-0.073c0.516,1.612,2.014,2.785,3.789,2.817
		c-1.388,1.087-3.137,1.737-5.037,1.737c-0.328,0-0.65-0.018-0.967-0.056c1.795,1.152,3.926,1.823,6.218,1.823
		c7.459,0,11.541-6.18,11.541-11.541c0-0.177-0.005-0.351-0.013-0.524C16.255,1.573,16.944,0.858,17.486,0.045z"/>
</g>
</svg>
